<mxfile host="app.diagrams.net" modified="2022-07-20T01:25:10.384Z" agent="5.0 (Windows NT 10.0; Win64; x64) AppleWebKit/537.36 (KHTML, like Gecko) Chrome/103.0.5060.114 Safari/537.36 Edg/103.0.1264.62" etag="BvTn92TMnvs7IWmUU_4V" version="20.1.1" type="github">
  <diagram id="G9VTqADsOA1uYVqKmHrd" name="第 1 页">
    <mxGraphModel dx="1364" dy="554" grid="1" gridSize="10" guides="1" tooltips="1" connect="1" arrows="1" fold="1" page="1" pageScale="1" pageWidth="827" pageHeight="1169" math="0" shadow="0">
      <root>
        <mxCell id="0" />
        <mxCell id="1" parent="0" />
        <mxCell id="viMZh_LxQ2nRwRlM60QG-3" value="" style="edgeStyle=orthogonalEdgeStyle;rounded=0;orthogonalLoop=1;jettySize=auto;html=1;" parent="1" source="viMZh_LxQ2nRwRlM60QG-1" target="viMZh_LxQ2nRwRlM60QG-2" edge="1">
          <mxGeometry relative="1" as="geometry" />
        </mxCell>
        <mxCell id="viMZh_LxQ2nRwRlM60QG-1" value="App.vue" style="rounded=0;whiteSpace=wrap;html=1;" parent="1" vertex="1">
          <mxGeometry x="60" y="360" width="120" height="60" as="geometry" />
        </mxCell>
        <mxCell id="viMZh_LxQ2nRwRlM60QG-5" value="" style="edgeStyle=orthogonalEdgeStyle;rounded=0;orthogonalLoop=1;jettySize=auto;html=1;" parent="1" source="viMZh_LxQ2nRwRlM60QG-2" target="viMZh_LxQ2nRwRlM60QG-4" edge="1">
          <mxGeometry relative="1" as="geometry" />
        </mxCell>
        <mxCell id="viMZh_LxQ2nRwRlM60QG-7" value="" style="edgeStyle=orthogonalEdgeStyle;rounded=0;orthogonalLoop=1;jettySize=auto;html=1;" parent="1" source="viMZh_LxQ2nRwRlM60QG-2" target="viMZh_LxQ2nRwRlM60QG-6" edge="1">
          <mxGeometry relative="1" as="geometry" />
        </mxCell>
        <mxCell id="viMZh_LxQ2nRwRlM60QG-2" value="根据auth信息" style="rhombus;whiteSpace=wrap;html=1;rounded=0;" parent="1" vertex="1">
          <mxGeometry x="284" y="340" width="130" height="100" as="geometry" />
        </mxCell>
        <mxCell id="viMZh_LxQ2nRwRlM60QG-4" value="APP小程序" style="whiteSpace=wrap;html=1;rounded=0;" parent="1" vertex="1">
          <mxGeometry x="289" y="190" width="120" height="60" as="geometry" />
        </mxCell>
        <mxCell id="viMZh_LxQ2nRwRlM60QG-9" value="" style="edgeStyle=orthogonalEdgeStyle;rounded=0;orthogonalLoop=1;jettySize=auto;html=1;" parent="1" source="viMZh_LxQ2nRwRlM60QG-6" target="viMZh_LxQ2nRwRlM60QG-8" edge="1">
          <mxGeometry relative="1" as="geometry" />
        </mxCell>
        <mxCell id="viMZh_LxQ2nRwRlM60QG-6" value="游览器" style="whiteSpace=wrap;html=1;rounded=0;" parent="1" vertex="1">
          <mxGeometry x="289" y="525" width="120" height="60" as="geometry" />
        </mxCell>
        <mxCell id="viMZh_LxQ2nRwRlM60QG-11" value="" style="edgeStyle=orthogonalEdgeStyle;rounded=0;orthogonalLoop=1;jettySize=auto;html=1;" parent="1" source="viMZh_LxQ2nRwRlM60QG-8" target="viMZh_LxQ2nRwRlM60QG-10" edge="1">
          <mxGeometry relative="1" as="geometry" />
        </mxCell>
        <mxCell id="viMZh_LxQ2nRwRlM60QG-8" value="store 设置&lt;br&gt;请求的 baseUrl" style="whiteSpace=wrap;html=1;rounded=0;" parent="1" vertex="1">
          <mxGeometry x="289" y="665" width="120" height="60" as="geometry" />
        </mxCell>
        <mxCell id="viMZh_LxQ2nRwRlM60QG-13" value="" style="edgeStyle=orthogonalEdgeStyle;rounded=0;orthogonalLoop=1;jettySize=auto;html=1;" parent="1" source="viMZh_LxQ2nRwRlM60QG-10" target="viMZh_LxQ2nRwRlM60QG-12" edge="1">
          <mxGeometry relative="1" as="geometry" />
        </mxCell>
        <mxCell id="viMZh_LxQ2nRwRlM60QG-10" value="进行登录请求&lt;br&gt;设置用户，菜单" style="whiteSpace=wrap;html=1;rounded=0;" parent="1" vertex="1">
          <mxGeometry x="289" y="805" width="120" height="60" as="geometry" />
        </mxCell>
        <mxCell id="viMZh_LxQ2nRwRlM60QG-15" value="" style="edgeStyle=orthogonalEdgeStyle;rounded=0;orthogonalLoop=1;jettySize=auto;html=1;" parent="1" source="viMZh_LxQ2nRwRlM60QG-12" target="viMZh_LxQ2nRwRlM60QG-14" edge="1">
          <mxGeometry relative="1" as="geometry" />
        </mxCell>
        <mxCell id="viMZh_LxQ2nRwRlM60QG-12" value="登录请求里&lt;br&gt;写死了表单数据" style="whiteSpace=wrap;html=1;rounded=0;" parent="1" vertex="1">
          <mxGeometry x="89" y="805" width="120" height="60" as="geometry" />
        </mxCell>
        <mxCell id="viMZh_LxQ2nRwRlM60QG-14" value="ajax 拦截器里&lt;br&gt;写死的 baseurl" style="whiteSpace=wrap;html=1;rounded=0;" parent="1" vertex="1">
          <mxGeometry x="-111" y="805" width="120" height="60" as="geometry" />
        </mxCell>
        <mxCell id="mMeTXBTy8XtxrKCNUORP-5" value="" style="edgeStyle=orthogonalEdgeStyle;rounded=0;orthogonalLoop=1;jettySize=auto;html=1;" edge="1" parent="1" source="mMeTXBTy8XtxrKCNUORP-1" target="mMeTXBTy8XtxrKCNUORP-4">
          <mxGeometry relative="1" as="geometry" />
        </mxCell>
        <mxCell id="mMeTXBTy8XtxrKCNUORP-1" value="main.js" style="rounded=0;whiteSpace=wrap;html=1;" vertex="1" parent="1">
          <mxGeometry x="707" y="370" width="120" height="60" as="geometry" />
        </mxCell>
        <mxCell id="mMeTXBTy8XtxrKCNUORP-12" value="" style="edgeStyle=orthogonalEdgeStyle;rounded=0;orthogonalLoop=1;jettySize=auto;html=1;" edge="1" parent="1" source="mMeTXBTy8XtxrKCNUORP-4" target="mMeTXBTy8XtxrKCNUORP-11">
          <mxGeometry relative="1" as="geometry" />
        </mxCell>
        <mxCell id="mMeTXBTy8XtxrKCNUORP-4" value="App.vue" style="rounded=0;whiteSpace=wrap;html=1;" vertex="1" parent="1">
          <mxGeometry x="707" y="550" width="120" height="60" as="geometry" />
        </mxCell>
        <mxCell id="mMeTXBTy8XtxrKCNUORP-8" value="主入口 Vue 初始化文件" style="text;html=1;strokeColor=default;fillColor=none;align=center;verticalAlign=middle;whiteSpace=wrap;rounded=0;dashed=1;" vertex="1" parent="1">
          <mxGeometry x="890" y="385" width="170" height="30" as="geometry" />
        </mxCell>
        <mxCell id="mMeTXBTy8XtxrKCNUORP-10" value="&lt;h1&gt;应用配置，用来设置应用的全局样式与监听&lt;/h1&gt;&lt;p&gt;&lt;code style=&quot;font-family: source-code-pro, Menlo, Monaco, Consolas, &amp;quot;Courier New&amp;quot;, monospace; color: rgb(233, 105, 0); padding: 0.25rem 0.5rem; margin: 0px; font-size: 0.85em; background-color: rgba(27, 31, 35, 0.05); border-radius: 3px;&quot;&gt;App.vue&lt;/code&gt;&lt;span style=&quot;background-color: rgb(255, 255, 255); color: rgb(44, 62, 80); font-family: -apple-system, BlinkMacSystemFont, &amp;quot;Segoe UI&amp;quot;, Roboto, Oxygen, Ubuntu, Cantarell, &amp;quot;Fira Sans&amp;quot;, &amp;quot;Droid Sans&amp;quot;, &amp;quot;Helvetica Neue&amp;quot;, sans-serif; font-size: 16px;&quot;&gt;是uni-app的主组件，所有页面都是在&lt;/span&gt;&lt;code style=&quot;font-family: source-code-pro, Menlo, Monaco, Consolas, &amp;quot;Courier New&amp;quot;, monospace; color: rgb(233, 105, 0); padding: 0.25rem 0.5rem; margin: 0px; font-size: 0.85em; background-color: rgba(27, 31, 35, 0.05); border-radius: 3px;&quot;&gt;App.vue&lt;/code&gt;&lt;span style=&quot;background-color: rgb(255, 255, 255); color: rgb(44, 62, 80); font-family: -apple-system, BlinkMacSystemFont, &amp;quot;Segoe UI&amp;quot;, Roboto, Oxygen, Ubuntu, Cantarell, &amp;quot;Fira Sans&amp;quot;, &amp;quot;Droid Sans&amp;quot;, &amp;quot;Helvetica Neue&amp;quot;, sans-serif; font-size: 16px;&quot;&gt;下进行切换的，是页面入口文件。但&lt;/span&gt;&lt;code style=&quot;font-family: source-code-pro, Menlo, Monaco, Consolas, &amp;quot;Courier New&amp;quot;, monospace; color: rgb(233, 105, 0); padding: 0.25rem 0.5rem; margin: 0px; font-size: 0.85em; background-color: rgba(27, 31, 35, 0.05); border-radius: 3px;&quot;&gt;App.vue&lt;/code&gt;&lt;span style=&quot;background-color: rgb(255, 255, 255); color: rgb(44, 62, 80); font-family: -apple-system, BlinkMacSystemFont, &amp;quot;Segoe UI&amp;quot;, Roboto, Oxygen, Ubuntu, Cantarell, &amp;quot;Fira Sans&amp;quot;, &amp;quot;Droid Sans&amp;quot;, &amp;quot;Helvetica Neue&amp;quot;, sans-serif; font-size: 16px;&quot;&gt;本身不是页面，这里不能编写视图元素，也就是没有&lt;/span&gt;&lt;code style=&quot;font-family: source-code-pro, Menlo, Monaco, Consolas, &amp;quot;Courier New&amp;quot;, monospace; color: rgb(233, 105, 0); padding: 0.25rem 0.5rem; margin: 0px; font-size: 0.85em; background-color: rgba(27, 31, 35, 0.05); border-radius: 3px;&quot;&gt;&amp;lt;template&amp;gt;&lt;/code&gt;&lt;span style=&quot;background-color: rgb(255, 255, 255); color: rgb(44, 62, 80); font-family: -apple-system, BlinkMacSystemFont, &amp;quot;Segoe UI&amp;quot;, Roboto, Oxygen, Ubuntu, Cantarell, &amp;quot;Fira Sans&amp;quot;, &amp;quot;Droid Sans&amp;quot;, &amp;quot;Helvetica Neue&amp;quot;, sans-serif; font-size: 16px;&quot;&gt;。&lt;/span&gt;&lt;/p&gt;&lt;p style=&quot;line-height: 1.7; color: rgb(44, 62, 80); font-family: -apple-system, BlinkMacSystemFont, &amp;quot;Segoe UI&amp;quot;, Roboto, Oxygen, Ubuntu, Cantarell, &amp;quot;Fira Sans&amp;quot;, &amp;quot;Droid Sans&amp;quot;, &amp;quot;Helvetica Neue&amp;quot;, sans-serif; font-size: 16px; background-color: rgb(255, 255, 255);&quot;&gt;这个文件的作用包括：调用应用生命周期函数、配置全局样式、配置全局的存储globalData&lt;/p&gt;&lt;p style=&quot;line-height: 1.7; color: rgb(44, 62, 80); font-family: -apple-system, BlinkMacSystemFont, &amp;quot;Segoe UI&amp;quot;, Roboto, Oxygen, Ubuntu, Cantarell, &amp;quot;Fira Sans&amp;quot;, &amp;quot;Droid Sans&amp;quot;, &amp;quot;Helvetica Neue&amp;quot;, sans-serif; font-size: 16px; background-color: rgb(255, 255, 255);&quot;&gt;应用生命周期仅可在&lt;code style=&quot;font-family: source-code-pro, Menlo, Monaco, Consolas, &amp;quot;Courier New&amp;quot;, monospace; color: rgb(233, 105, 0); padding: 0.25rem 0.5rem; margin: 0px; font-size: 0.85em; background-color: rgba(27, 31, 35, 0.05); border-radius: 3px;&quot;&gt;App.vue&lt;/code&gt;中监听，在页面监听无效&lt;/p&gt;&lt;p style=&quot;line-height: 1.7; color: rgb(44, 62, 80); font-family: -apple-system, BlinkMacSystemFont, &amp;quot;Segoe UI&amp;quot;, Roboto, Oxygen, Ubuntu, Cantarell, &amp;quot;Fira Sans&amp;quot;, &amp;quot;Droid Sans&amp;quot;, &amp;quot;Helvetica Neue&amp;quot;, sans-serif; font-size: 16px; background-color: rgb(255, 255, 255);&quot;&gt;参考链接:&amp;nbsp;&amp;nbsp;https://uniapp.dcloud.io/collocation/App.html&lt;/p&gt;" style="text;html=1;strokeColor=default;fillColor=none;spacing=5;spacingTop=-20;whiteSpace=wrap;overflow=hidden;rounded=0;dashed=1;" vertex="1" parent="1">
          <mxGeometry x="895" y="460" width="690" height="250" as="geometry" />
        </mxCell>
        <mxCell id="mMeTXBTy8XtxrKCNUORP-17" value="" style="edgeStyle=orthogonalEdgeStyle;rounded=0;orthogonalLoop=1;jettySize=auto;html=1;" edge="1" parent="1" source="mMeTXBTy8XtxrKCNUORP-11" target="mMeTXBTy8XtxrKCNUORP-16">
          <mxGeometry relative="1" as="geometry" />
        </mxCell>
        <mxCell id="mMeTXBTy8XtxrKCNUORP-11" value="page.json 里的&lt;br&gt;配置项第一个页面&lt;br&gt;作为工程的首页&lt;br&gt;及启动页&lt;br&gt;" style="rounded=0;whiteSpace=wrap;html=1;" vertex="1" parent="1">
          <mxGeometry x="695.5" y="725" width="143" height="90" as="geometry" />
        </mxCell>
        <mxCell id="mMeTXBTy8XtxrKCNUORP-14" value="" style="endArrow=none;dashed=1;html=1;rounded=0;exitX=1;exitY=0.5;exitDx=0;exitDy=0;" edge="1" parent="1" source="mMeTXBTy8XtxrKCNUORP-1" target="mMeTXBTy8XtxrKCNUORP-8">
          <mxGeometry width="50" height="50" relative="1" as="geometry">
            <mxPoint x="920" y="630" as="sourcePoint" />
            <mxPoint x="970" y="580" as="targetPoint" />
          </mxGeometry>
        </mxCell>
        <mxCell id="mMeTXBTy8XtxrKCNUORP-15" value="" style="endArrow=none;dashed=1;html=1;rounded=0;exitX=1;exitY=0.5;exitDx=0;exitDy=0;" edge="1" parent="1" source="mMeTXBTy8XtxrKCNUORP-4">
          <mxGeometry width="50" height="50" relative="1" as="geometry">
            <mxPoint x="920" y="630" as="sourcePoint" />
            <mxPoint x="900" y="580" as="targetPoint" />
          </mxGeometry>
        </mxCell>
        <mxCell id="mMeTXBTy8XtxrKCNUORP-19" value="" style="edgeStyle=orthogonalEdgeStyle;rounded=0;orthogonalLoop=1;jettySize=auto;html=1;" edge="1" parent="1" source="mMeTXBTy8XtxrKCNUORP-16" target="mMeTXBTy8XtxrKCNUORP-18">
          <mxGeometry relative="1" as="geometry" />
        </mxCell>
        <mxCell id="mMeTXBTy8XtxrKCNUORP-16" value="页面生命周期" style="whiteSpace=wrap;html=1;rounded=0;" vertex="1" parent="1">
          <mxGeometry x="707" y="910" width="120" height="60" as="geometry" />
        </mxCell>
        <mxCell id="mMeTXBTy8XtxrKCNUORP-21" value="" style="edgeStyle=orthogonalEdgeStyle;rounded=0;orthogonalLoop=1;jettySize=auto;html=1;" edge="1" parent="1" source="mMeTXBTy8XtxrKCNUORP-18" target="mMeTXBTy8XtxrKCNUORP-20">
          <mxGeometry relative="1" as="geometry" />
        </mxCell>
        <mxCell id="mMeTXBTy8XtxrKCNUORP-18" value="组件生命周期" style="whiteSpace=wrap;html=1;rounded=0;" vertex="1" parent="1">
          <mxGeometry x="707" y="1050" width="120" height="60" as="geometry" />
        </mxCell>
        <mxCell id="mMeTXBTy8XtxrKCNUORP-20" value="全局自定义事件&lt;br&gt;多层级页面间通讯" style="whiteSpace=wrap;html=1;rounded=0;" vertex="1" parent="1">
          <mxGeometry x="707" y="1190" width="120" height="60" as="geometry" />
        </mxCell>
        <mxCell id="mMeTXBTy8XtxrKCNUORP-22" value="uni.$emit&lt;br&gt;uni.$on&lt;br&gt;uni.$once&lt;br&gt;uni.$off" style="text;html=1;strokeColor=default;fillColor=none;align=center;verticalAlign=middle;whiteSpace=wrap;rounded=0;dashed=1;" vertex="1" parent="1">
          <mxGeometry x="920" y="1180" width="160" height="80" as="geometry" />
        </mxCell>
        <mxCell id="mMeTXBTy8XtxrKCNUORP-23" value="" style="endArrow=none;dashed=1;html=1;rounded=0;exitX=1;exitY=0.5;exitDx=0;exitDy=0;" edge="1" parent="1" source="mMeTXBTy8XtxrKCNUORP-20" target="mMeTXBTy8XtxrKCNUORP-22">
          <mxGeometry width="50" height="50" relative="1" as="geometry">
            <mxPoint x="950" y="1160" as="sourcePoint" />
            <mxPoint x="1000" y="1110" as="targetPoint" />
          </mxGeometry>
        </mxCell>
      </root>
    </mxGraphModel>
  </diagram>
</mxfile>
